<svg xmlns="http://www.w3.org/2000/svg" xmlns:xlink="http://www.w3.org/1999/xlink" width="90" height="90" viewBox="0 0 90 90">
  <defs>
    <clipPath id="clip-path">
      <rect id="Rectangle_139" data-name="Rectangle 139" width="35.67" height="56.03" transform="translate(0 0)" fill="#7b8b5e"/>
    </clipPath>
  </defs>
  <g id="Group_801" data-name="Group 801" transform="translate(-211)">
    <g id="Component_11_1" data-name="Component 11 – 1" transform="translate(211)">
      <g id="Ellipse_1" data-name="Ellipse 1" fill="#fff" stroke="#707070" stroke-width="1">
        <circle cx="45" cy="45" r="45" stroke="none"/>
        <circle cx="45" cy="45" r="44.5" fill="none"/>
      </g>
    </g>
    <g id="Group_789" data-name="Group 789" transform="translate(239.031 16.918)">
      <g id="Group_788" data-name="Group 788" transform="translate(0 -0.002)" clip-path="url(#clip-path)">
        <path id="Path_337" data-name="Path 337" d="M124.638,12.029a6.016,6.016,0,1,0-5.911-6.015,6.048,6.048,0,0,0,5.911,6.015m0-10.773a4.759,4.759,0,1,1-4.653,4.758,4.745,4.745,0,0,1,4.653-4.758" transform="translate(-114.062 0.001)" fill="#7b8b5e"/>
        <path id="Path_338" data-name="Path 338" d="M30.085,349.967c-.02-2.7-.739-5.072-3.808-5.1-.054,0-.111,0-.17-.006.664-1.786-.386-3.555-2.285-4.328l-6.851-2.791c-.917-.374-1.435-.664-1.435-1.8a11.739,11.739,0,0,0-.259-3.709,5.062,5.062,0,0,0-8.416-1.845c-1.436,1.588-1.377,3.419-1.377,5.389v2.107c-2.19.311-4.306,1.1-5.1,3.4-.573,1.654-.336,3.7-.336,5.422,0,1.961-.03,3.925,0,5.887a4.344,4.344,0,0,0,4.265,4.473.6.6,0,0,0,.141-.018h6.114v13.6H4.379a.629.629,0,0,0,0,1.257H18.014a.629.629,0,0,0,0-1.257H11.825v-13.6h6.113a.6.6,0,0,0,.141.018h4.484v6.018c0,1.321-.033,2.647,0,3.968.076,2.719,1.915,5.521,5.017,4.76,2.292-.562,2.5-3.249,2.5-5.2.005-1.685,0-3.369,0-5.054,0-3.865.029-7.731,0-11.6m-28.779,1.9v-5.163c0-1.184-.055-2.383.009-3.565.143-2.622,1.917-3.638,4.17-3.994V343.6c0,1.947-.02,3.895,0,5.842a3.812,3.812,0,0,0,.3,1.846c.934,1.763,3.7,1.163,5.334,1.163H22.562v3.364H18.22a.6.6,0,0,0-.141-.018H4.314a.6.6,0,0,0-.113.012c-2.228-.067-2.895-2.058-2.895-3.933M28.76,368.23a3.066,3.066,0,0,1-.876,2.071,2.472,2.472,0,0,1-2.55.012c-1.238-.67-1.491-2.178-1.514-3.455-.022-1.22,0-2.442,0-3.662V351.818a.639.639,0,0,0-.388-.579.609.609,0,0,0-.242-.05h-10.7c-.617,0-1.234,0-1.851,0h-.113c-.121,0-.261.009-.416.02a7.257,7.257,0,0,1-2.637-.1c-.426-.146-.647-.629-.752-1.241,0-.281.019-.57.019-.786v-2.5c0-.064,0-.128,0-.191,0-.005,0-.012,0-.017v-5.721h0v-2.215a.559.559,0,0,0-.011-.1q0-2.085.011-4.169c.023-3.393,3.871-5.589,6.484-2.924,1.117,1.138,1.052,2.574,1.052,4.037,0,.99-.114,2.036.655,2.8a5.836,5.836,0,0,0,1.942.971l3.511,1.43c1.807.736,6.4,1.82,4.211,4.569l-.006.009c-.131.117-.239.264-.373.388a2.251,2.251,0,0,1-1.723.68,14.941,14.941,0,0,1-4.042-1.239c-3.1-1.161-6.928-2.237-8.6-5.361-.381-.714-1.467-.08-1.086.635,1.841,3.449,5.928,4.657,9.347,5.939,1.966.727,4.5,2.054,6.461.694a2.8,2.8,0,0,0,.743-.665,6.833,6.833,0,0,0,1.269-.007c1.787.086,2.146,1.559,2.219,3.1.148,3.126.014,6.286.014,9.414v6.043a28.217,28.217,0,0,1-.068,3.552" transform="translate(0 -315.911)" fill="#7b8b5e"/>
        <path id="Path_339" data-name="Path 339" d="M551.584,53.367a7.264,7.264,0,0,0-8.029,2.148c-4.2,5.033.283,12.794,6.733,11.716a7.205,7.205,0,0,0,1.3-13.864m-2.5,12.71a5.95,5.95,0,1,1,5.95-5.95,6,6,0,0,1-5.95,5.95" transform="translate(-520.624 -50.848)" fill="#7b8b5e"/>
        <path id="Path_340" data-name="Path 340" d="M709.159,104.761h-2.444v-4.547a.629.629,0,0,0-1.257,0v5.176a.638.638,0,0,0,.629.629h3.072a.629.629,0,0,0,0-1.257" transform="translate(-677.737 -95.693)" fill="#7b8b5e"/>
      </g>
    </g>
  </g>
</svg>
