<svg xmlns="http://www.w3.org/2000/svg" xmlns:xlink="http://www.w3.org/1999/xlink" width="90" height="90" viewBox="0 0 90 90">
  <defs>
    <clipPath id="clip-path">
      <rect id="Rectangle_140" data-name="Rectangle 140" width="46.345" height="44.69" transform="translate(0 0)" fill="#7b8b5e"/>
    </clipPath>
  </defs>
  <g id="Group_802" data-name="Group 802" transform="translate(-914 -7495)">
    <g id="Ellipse_1" data-name="Ellipse 1" transform="translate(914 7495)" fill="#fff" stroke="#707070" stroke-width="1">
      <circle cx="45" cy="45" r="45" stroke="none"/>
      <circle cx="45" cy="45" r="44.5" fill="none"/>
    </g>
    <g id="Group_790" data-name="Group 790" transform="translate(936.021 7517.878)" clip-path="url(#clip-path)">
      <path id="Path_341" data-name="Path 341" d="M0,3.424c.139-.145.1-.342.145-.513A3.877,3.877,0,0,1,3.769.011C4.04,0,4.312.005,4.584.005q15.55,0,31.1,0a3.856,3.856,0,0,1,4.057,3.926q0,5.84,0,11.68a1.515,1.515,0,0,1-.017.361.592.592,0,0,1-.568.495.57.57,0,0,1-.66-.424,2.431,2.431,0,0,1-.06-.626c0-3.8,0-7.605-.005-11.408a2.51,2.51,0,0,0-2.02-2.629,2.723,2.723,0,0,0-.583-.052q-14.26,0-28.52,0c-.132,0-.264.012-.382.017-.058.108,0,.168.043.225a4.082,4.082,0,0,1,.755,2.551q-.015,6.768,0,13.536,0,12.54,0,25.079c0,.638,0,.638.627.638q14.735,0,29.471,0c.678,0,.61.1.617-.639,0-.332-.013-.665.009-1a.654.654,0,0,1,.69-.679.642.642,0,0,1,.606.707c.009.739.01,1.479,0,2.218a.649.649,0,0,1-.662.705c-.12.011-.241,0-.362,0H7.479c-.9,0-1.049-.151-1.049-1.048q0-19.738,0-39.475A2.609,2.609,0,0,0,4.967,1.577,2.521,2.521,0,0,0,1.345,3.807c-.018,1.841,0,3.682-.013,5.523,0,.355.125.432.445.425.814-.017,1.63-.01,2.444,0,.51,0,.762.219.769.626.008.426-.254.652-.786.655-1.086.005-2.173-.015-3.259.01A.972.972,0,0,1,0,10.577Z" transform="translate(0 -0.004)" fill="#7b8b5e"/>
      <path id="Path_342" data-name="Path 342" d="M328.993,594.018a1.075,1.075,0,0,0-.6-.081q-7.763,0-15.526,0c-.7,0-.988-.183-.994-.633s.281-.652.977-.652c5.568,0,11.135-.007,16.7.011.476,0,.772-.121.924-.575.081-.242.2-.472.284-.713.234-.666.36-.759,1.088-.76h4.481q2.988,0,5.975,0c.6,0,.754.118.956.687a6.189,6.189,0,0,0,4.626,4.158c.59.145.727.3.749.888a18.782,18.782,0,0,1-11.1,17.7,1.157,1.157,0,0,1-1.03-.006,18.59,18.59,0,0,1-7.968-6.752.731.731,0,0,0-.694-.374q-7.446.015-14.892.006a3.126,3.126,0,0,1-.541-.028.642.642,0,0,1,.07-1.275c.15-.011.3-.005.452-.005h14.032c.564,0,.563,0,.313-.519a17.379,17.379,0,0,1-1.44-4.221c-.066-.335-.2-.454-.563-.452-4.119.015-8.238.01-12.358.009a3.555,3.555,0,0,1-.452-.007.65.65,0,0,1-.045-1.29,2.565,2.565,0,0,1,.5-.019c4.029,0,8.057-.007,12.086.009.427,0,.549-.117.491-.529a13.531,13.531,0,0,1-.081-2.259c.016-.571.16-.749.71-.872a6.154,6.154,0,0,0,2.868-1.451m-2.276,3.552c.039.465.068.932.119,1.4.04.359.1.717.167,1.071a17.261,17.261,0,0,0,9.638,12.63.708.708,0,0,0,.717.027q9.524-4.911,9.971-15.612c.013-.315-.094-.439-.389-.533a7.367,7.367,0,0,1-4.7-4.261.524.524,0,0,0-.571-.369q-4.638.017-9.276,0a.549.549,0,0,0-.6.4,7.425,7.425,0,0,1-4.286,4.107c-.785.305-.789.3-.794,1.146" transform="translate(-302.303 -572.49)" fill="#7b8b5e"/>
      <path id="Path_343" data-name="Path 343" d="M324.724,115.688a6.724,6.724,0,1,1-6.688-6.719,6.724,6.724,0,0,1,6.688,6.719m-10.42,3.934a4,4,0,0,1,1.154-2.225.223.223,0,0,0,.048-.285,5.188,5.188,0,0,1-.257-2.492,2.765,2.765,0,0,1,2.448-2.654,2.686,2.686,0,0,1,2.947,2,5.389,5.389,0,0,1-.094,3.03.409.409,0,0,0,.11.507,3.622,3.622,0,0,1,.962,1.712c.029.112-.007.278.132.31s.2-.117.273-.2a5.3,5.3,0,0,0,1.326-4.526,5.417,5.417,0,1,0-10.585,2.257,5.079,5.079,0,0,0,1.538,2.567m3.689,1.485a5.1,5.1,0,0,0,2.109-.413c.154-.063.3-.116.31-.333a2.524,2.524,0,0,0-.619-1.878.344.344,0,0,0-.5-.1,2.628,2.628,0,0,1-2.592-.009.325.325,0,0,0-.462.092,2.652,2.652,0,0,0-.657,1.643.517.517,0,0,0,.38.615,5.523,5.523,0,0,0,2.027.383m-1.435-5.787c0,.2,0,.391,0,.586a1.453,1.453,0,0,0,2.9.136,8.327,8.327,0,0,0,0-1.442,1.452,1.452,0,0,0-2.9.133c0,.2,0,.391,0,.586" transform="translate(-301.724 -105.626)" fill="#7b8b5e"/>
      <path id="Path_344" data-name="Path 344" d="M818.553,231.23q-2.444,0-4.888,0c-.717,0-.914-.2-.916-.912q-.005-2.24,0-4.481c0-.712.209-.923.919-.924q4.911,0,9.821,0c.724,0,.925.2.927.9q.007,2.263,0,4.526c0,.714-.175.884-.885.886q-2.489.005-4.979,0m.043-1.289c1.372,0,2.745-.007,4.117.006.313,0,.423-.1.418-.414q-.025-1.447,0-2.9c0-.3-.08-.423-.406-.422q-4.14.016-8.28,0c-.293,0-.4.09-.391.387.015.95.027,1.9,0,2.85-.014.419.14.5.521.5,1.342-.02,2.684-.008,4.027-.008" transform="translate(-787.808 -218.009)" fill="#7b8b5e"/>
      <path id="Path_345" data-name="Path 345" d="M318.245,1291.163q2.625,0,5.25,0a2.736,2.736,0,0,1,.5.027.579.579,0,0,1,.492.615.592.592,0,0,1-.489.622,2.073,2.073,0,0,1-.451.023q-5.341,0-10.681,0a2.531,2.531,0,0,1-.406-.015.587.587,0,0,1-.532-.627.576.576,0,0,1,.529-.626,3.618,3.618,0,0,1,.5-.02q2.648,0,5.3,0" transform="translate(-302.353 -1251.545)" fill="#7b8b5e"/>
      <path id="Path_346" data-name="Path 346" d="M953.325,775.034c0-.573-.006-1.146,0-1.719a.644.644,0,0,1,.72-.727c.6-.01,1.207-.02,1.81,0,.345.013.486-.078.467-.451-.03-.6-.014-1.206-.006-1.81.007-.49.233-.73.714-.734q1.765-.013,3.529,0c.476,0,.7.248.709.742.008.6.019,1.207,0,1.81-.012.329.077.458.427.443.587-.026,1.176-.011,1.764-.006s.8.222.8.785q.008,1.7,0,3.394c0,.539-.234.77-.771.776-.6.007-1.207.016-1.81,0-.309-.01-.428.078-.415.4.023.6.011,1.206.005,1.81-.006.543-.232.779-.765.782q-1.72.01-3.439,0c-.515,0-.742-.233-.749-.748-.008-.618-.015-1.237,0-1.855.008-.291-.082-.4-.383-.391-.6.019-1.207.009-1.81,0-.574,0-.8-.223-.8-.788s0-1.146,0-1.72m8.337,1.191c.317,0,.634-.012.95,0,.248.012.351-.068.344-.331q-.023-.837,0-1.675c.007-.261-.1-.339-.344-.334-.588.012-1.177.008-1.765,0-.672-.007-.884-.226-.888-.909,0-.573-.012-1.147,0-1.72.007-.266-.063-.386-.351-.378-.543.016-1.087.015-1.629,0-.282-.008-.365.1-.358.374.016.573.008,1.147,0,1.72-.005.7-.218.908-.931.913-.573,0-1.147.009-1.72,0-.245,0-.355.068-.348.332q.021.837,0,1.675c-.007.26.094.339.344.333.558-.013,1.117,0,1.675,0,.784,0,.979.2.981,1,0,.543.011,1.087,0,1.63-.008.267.07.379.355.369.543-.018,1.087-.019,1.629,0,.286.01.361-.1.354-.368-.016-.573-.007-1.147,0-1.72,0-.677.226-.9.889-.91.272,0,.543,0,.815,0" transform="translate(-924.071 -745.975)" fill="#7b8b5e"/>
    </g>
  </g>
</svg>
