<svg xmlns="http://www.w3.org/2000/svg" xmlns:xlink="http://www.w3.org/1999/xlink" width="90" height="90" viewBox="0 0 90 90">
  <defs>
    <clipPath id="clip-path">
      <rect id="Rectangle_141" data-name="Rectangle 141" width="65.582" height="58.219" transform="translate(0 -2)" fill="#7b8b5e"/>
    </clipPath>
  </defs>
  <g id="Group_803" data-name="Group 803" transform="translate(-1492 -7495)">
    <g id="Ellipse_1" data-name="Ellipse 1" transform="translate(1492 7495)" fill="#fff" stroke="#707070" stroke-width="1">
      <circle cx="45" cy="45" r="45" stroke="none"/>
      <circle cx="45" cy="45" r="44.5" fill="none"/>
    </g>
    <g id="Group_792" data-name="Group 792" transform="translate(1504.057 7515.227)" clip-path="url(#clip-path)">
      <path id="Path_347" data-name="Path 347" d="M705.578,532.969s-.444.129-.892.255l-.876.236,1.36.175a3.465,3.465,0,0,1,.728.158,10.5,10.5,0,0,1,1.225.544,8.544,8.544,0,0,1-1.364-.076,2.98,2.98,0,0,1-.705-.222l-1.244-.579,1.231,1.372a1.656,1.656,0,0,0,1.851.495l.939-.313.953-.34-1.3-1.281a1.883,1.883,0,0,0-1.906-.425" transform="translate(-649.36 -491.65)" fill="#7b8b5e"/>
      <path id="Path_348" data-name="Path 348" d="M670.9,485.587l-1.607-.884.068.813.054.838A2.088,2.088,0,0,0,670.38,488l1.536.971-.834-1.108a3.808,3.808,0,0,1-.4-.622c-.225-.453-.494-1.206-.494-1.206a9.526,9.526,0,0,1,.874,1,3.217,3.217,0,0,1,.354.645l.5,1.29.012-.916-.01-.9a1.785,1.785,0,0,0-1.019-1.576" transform="translate(-617.512 -447.204)" fill="#7b8b5e"/>
      <path id="Path_349" data-name="Path 349" d="M733.847,489.453s-.437.188-.869.364-.86.334-.86.334l1.39,0a3.791,3.791,0,0,1,.754.067,10.865,10.865,0,0,1,1.3.379,8.718,8.718,0,0,1-1.384.1,3.146,3.146,0,0,1-.739-.133l-1.317-.413,1.392,1.193a1.717,1.717,0,0,0,1.928.258s.455-.213.912-.422.876-.476.876-.476l-1.472-1.107a1.788,1.788,0,0,0-1.906-.145" transform="translate(-675.477 -451.395)" fill="#7b8b5e"/>
      <path id="Path_350" data-name="Path 350" d="M692.407,451.156l-1.7-.653a7.477,7.477,0,0,1,.2.807l.143.806a2.01,2.01,0,0,0,1.153,1.492l1.66.764-.965-.978a3.867,3.867,0,0,1-.467-.561c-.276-.412-.631-1.116-.631-1.116a8.993,8.993,0,0,1,.995.87,3.09,3.09,0,0,1,.426.587l.642,1.2s-.043-.447-.089-.9-.108-.872-.108-.872a1.9,1.9,0,0,0-1.256-1.448" transform="translate(-637.272 -415.65)" fill="#7b8b5e"/>
      <path id="Path_351" data-name="Path 351" d="M756.923,442.212l-.78.492a8.332,8.332,0,0,1-.8.448l.7-.075c.337-.054.67-.106.67-.106a3.492,3.492,0,0,1,.74-.044,10.6,10.6,0,0,1,1.32.2,8.27,8.27,0,0,1-1.32.294,2.869,2.869,0,0,1-.738-.028l-1.373-.24,1.53.991a1.741,1.741,0,0,0,1.958.007l.806-.56c.411-.293.814-.584.814-.584l-1.6-.9a1.834,1.834,0,0,0-1.931.1" transform="translate(-696.908 -407.697)" fill="#7b8b5e"/>
      <path id="Path_352" data-name="Path 352" d="M710.834,417.132l-1.077-.835a4.491,4.491,0,0,1-.55-.5c-.341-.376-.813-1.035-.813-1.035a9.648,9.648,0,0,1,1.117.735,3.3,3.3,0,0,1,.518.53l.419.555.386.55a7.889,7.889,0,0,0-.218-.878c-.129-.434-.261-.865-.261-.865a1.83,1.83,0,0,0-1.416-1.259l-1.779-.42s.152.385.3.766l.288.8a1.965,1.965,0,0,0,1.329,1.314Z" transform="translate(-652.452 -381.703)" fill="#7b8b5e"/>
      <path id="Path_353" data-name="Path 353" d="M773.749,392.341s-.363.294-.727.584-.724.556-.724.556l1.326-.367a3.541,3.541,0,0,1,.736-.141,11.473,11.473,0,0,1,1.346.021,8.3,8.3,0,0,1-1.3.464,3.206,3.206,0,0,1-.739.074l-1.373-.051,1.666.783a1.67,1.67,0,0,0,1.908-.266l.752-.656.753-.682-1.7-.674a1.922,1.922,0,0,0-1.925.356" transform="translate(-712.549 -361.547)" fill="#7b8b5e"/>
      <path id="Path_354" data-name="Path 354" d="M721.883,377.351a3.867,3.867,0,0,1-.6-.419c-.384-.324-.923-.911-.923-.911a9.21,9.21,0,0,1,1.2.575,3.293,3.293,0,0,1,.573.456l.959.986-.344-.842c-.175-.407-.348-.815-.348-.815a1.776,1.776,0,0,0-1.551-1.052l-1.824-.182.372.718c.187.374.368.745.368.745a2.065,2.065,0,0,0,1.526,1.135l1.8.293Z" transform="translate(-663.39 -346.123)" fill="#7b8b5e"/>
      <path id="Path_355" data-name="Path 355" d="M784.3,340.431s-.3.346-.648.675c-.331.322-.665.643-.665.643l1.289-.539a3.864,3.864,0,0,1,.72-.234,10.508,10.508,0,0,1,1.337-.157s-.177.114-.431.251a5.871,5.871,0,0,1-.807.376,3.258,3.258,0,0,1-.731.17l-1.378.133,1.747.549a1.727,1.727,0,0,0,1.88-.514l.679-.746.607-.781-1.786-.441a1.8,1.8,0,0,0-1.814.615" transform="translate(-722.414 -313.479)" fill="#7b8b5e"/>
      <path id="Path_356" data-name="Path 356" d="M728.2,336.221a3.764,3.764,0,0,1-.647-.332c-.211-.136-.463-.332-.663-.493l-.36-.287a9.172,9.172,0,0,1,1.26.411,3.217,3.217,0,0,1,.622.37l1.054.851s-.214-.395-.428-.787-.455-.764-.455-.764a1.883,1.883,0,0,0-1.721-.839l-1.82.067.514.666.441.688a2,2,0,0,0,1.642.919l1.827.051Z" transform="translate(-668.947 -308.482)" fill="#7b8b5e"/>
      <path id="Path_357" data-name="Path 357" d="M788.773,287.722s-.261.376-.524.753a8.727,8.727,0,0,1-.555.726l.609-.344c.291-.179.578-.359.578-.359a3.5,3.5,0,0,1,.664-.327,10.26,10.26,0,0,1,1.292-.334,7.992,7.992,0,0,1-1.1.784,2.869,2.869,0,0,1-.686.266l-1.357.314,1.793.313a1.733,1.733,0,0,0,1.8-.757s.265-.414.525-.828l.521-.855-1.821-.2a1.851,1.851,0,0,0-1.742.847" transform="translate(-726.754 -264.672)" fill="#7b8b5e"/>
      <path id="Path_358" data-name="Path 358" d="M729.292,292.079a3.678,3.678,0,0,1-.7-.245c-.464-.214-1.154-.636-1.154-.636a9.7,9.7,0,0,1,1.314.242,3.408,3.408,0,0,1,.685.286l.6.345.573.359a8.9,8.9,0,0,0-.546-.725c-.29-.346-.579-.7-.579-.7a1.829,1.829,0,0,0-1.791-.607l-1.8.306s.287.3.575.6l.575.622a1.987,1.987,0,0,0,1.742.693l1.83-.191Z" transform="translate(-669.731 -267.901)" fill="#7b8b5e"/>
      <path id="Path_359" data-name="Path 359" d="M786.511,234.368s-.22.412-.445.819-.442.795-.442.795l1.072-.853a3.459,3.459,0,0,1,.621-.414,10.673,10.673,0,0,1,1.246-.506,8.5,8.5,0,0,1-1.006.932,3.25,3.25,0,0,1-.654.349l-1.279.492,1.836.073a1.676,1.676,0,0,0,1.653-.991s.214-.443.433-.892.426-.921.426-.921l-1.825.042a1.9,1.9,0,0,0-1.636,1.076" transform="translate(-724.844 -215.205)" fill="#7b8b5e"/>
      <path id="Path_360" data-name="Path 360" d="M723.505,246.321l-1.755.542s.315.257.627.515l.632.544a2.065,2.065,0,0,0,1.851.453l1.771-.428-1.377-.169a4.11,4.11,0,0,1-.722-.151c-.476-.152-1.2-.48-1.2-.48a9.025,9.025,0,0,1,1.326.066,3.149,3.149,0,0,1,.706.195l1.271.539-.65-.645c-.32-.309-.639-.614-.639-.614a1.776,1.776,0,0,0-1.837-.368" transform="translate(-665.912 -227.166)" fill="#7b8b5e"/>
      <path id="Path_361" data-name="Path 361" d="M777.708,179.8s-.15.441-.336.876l-.36.849.975-.994a3.718,3.718,0,0,1,.57-.5,11.175,11.175,0,0,1,1.175-.668,8.593,8.593,0,0,1-.9,1.064,3.26,3.26,0,0,1-.607.437l-1.216.658,1.823-.169a1.717,1.717,0,0,0,1.529-1.21l.331-.948c.151-.477.261-.96.261-.96l-1.817.289a1.8,1.8,0,0,0-1.431,1.271" transform="translate(-716.899 -164.453)" fill="#7b8b5e"/>
      <path id="Path_362" data-name="Path 362" d="M715.519,203.163a1.877,1.877,0,0,0-1.911-.1l-1.651.767s.369.2.723.416c.337.23.677.459.677.459a2,2,0,0,0,1.87.207l1.7-.661-1.371.013a4.037,4.037,0,0,1-.73-.057,12.088,12.088,0,0,1-1.235-.321,9.238,9.238,0,0,1,1.312-.109,3.16,3.16,0,0,1,.718.1l1.306.374-.7-.56c-.342-.274-.708-.527-.708-.527" transform="translate(-656.876 -187.155)" fill="#7b8b5e"/>
      <path id="Path_363" data-name="Path 363" d="M762.921,127.553s-.095.452-.191.9a8.313,8.313,0,0,1-.227.885l.425-.557c.194-.277.392-.555.392-.555a3.509,3.509,0,0,1,.482-.562,10.917,10.917,0,0,1,1.059-.815,7.978,7.978,0,0,1-.7,1.159,3.084,3.084,0,0,1-.529.51l-1.125.819,1.776-.414a1.727,1.727,0,0,0,1.36-1.4l.16-.97.147-.994-1.753.528a1.845,1.845,0,0,0-1.273,1.462" transform="translate(-703.513 -115.849)" fill="#7b8b5e"/>
      <path id="Path_364" data-name="Path 364" d="M698.489,161.247l-1.543.982s.379.161.758.325.773.347.773.347a2,2,0,0,0,1.875-.042l1.61-.891-1.355.2a4.34,4.34,0,0,1-.74.05c-.507-.015-1.307-.135-1.307-.135a9.542,9.542,0,0,1,1.3-.293,3.326,3.326,0,0,1,.743-.005l.688.082.669.105a9.037,9.037,0,0,0-.788-.451c-.4-.209-.8-.416-.8-.416a1.811,1.811,0,0,0-1.883.146" transform="translate(-643.027 -148.454)" fill="#7b8b5e"/>
      <path id="Path_365" data-name="Path 365" d="M744.365,77.98s.027-.5.053-1l.034-1.017-1.678.766a1.881,1.881,0,0,0-1.067,1.621s-.047.465-.092.931-.107.91-.107.91l.659-1.211a3.74,3.74,0,0,1,.412-.627,11.556,11.556,0,0,1,.952-.953,8.3,8.3,0,0,1-.568,1.255,3.016,3.016,0,0,1-.462.581l-.992.956,1.719-.654a1.688,1.688,0,0,0,1.137-1.561" transform="translate(-684.142 -70.09)" fill="#7b8b5e"/>
      <path id="Path_366" data-name="Path 366" d="M679.094,123.148a2.054,2.054,0,0,0,1.876-.308l1.464-1.09-1.328.384a4.316,4.316,0,0,1-.724.142c-.5.049-1.292.026-1.292.026a9.612,9.612,0,0,1,1.244-.458,3.041,3.041,0,0,1,.724-.094h1.376l-.844-.341c-.416-.159-.826-.32-.826-.32a1.8,1.8,0,0,0-1.844.389l-1.384,1.178.769.236Z" transform="translate(-625.118 -111.619)" fill="#7b8b5e"/>
      <path id="Path_367" data-name="Path 367" d="M686.362,55.771s.432.141.858.335.841.4.841.4l-.967-1.01a4.6,4.6,0,0,1-.478-.58,10.183,10.183,0,0,1-.627-1.176,6.75,6.75,0,0,1,1.026.9,3.206,3.206,0,0,1,.425.627l.621,1.237-.116-1.827a1.745,1.745,0,0,0-1.167-1.572,7.985,7.985,0,0,0-.934-.34l-.951-.293.237,1.823a1.811,1.811,0,0,0,1.232,1.478" transform="translate(-631.906 -48.411)" fill="#7b8b5e"/>
      <path id="Path_368" data-name="Path 368" d="M82.773,532.969a1.883,1.883,0,0,0-1.905.425l-1.3,1.281s.479.169.955.34l.939.313a1.658,1.658,0,0,0,1.852-.495l1.23-1.372-1.242.579a3.075,3.075,0,0,1-.705.222,8.575,8.575,0,0,1-1.366.076,10.482,10.482,0,0,1,1.228-.544,3.417,3.417,0,0,1,.727-.158l1.358-.175-.876-.236c-.447-.126-.893-.255-.893-.255" transform="translate(-73.41 -491.65)" fill="#7b8b5e"/>
      <path id="Path_369" data-name="Path 369" d="M146.858,486.354l.053-.838c.034-.407.07-.813.07-.813l-1.61.884a1.782,1.782,0,0,0-1.015,1.576l-.011.9.011.916.5-1.29a3.52,3.52,0,0,1,.355-.645,9.678,9.678,0,0,1,.877-1s-.27.753-.494,1.205a4.007,4.007,0,0,1-.4.622l-.835,1.108,1.536-.971a2.088,2.088,0,0,0,.966-1.649" transform="translate(-133.178 -447.204)" fill="#7b8b5e"/>
      <path id="Path_370" data-name="Path 370" d="M53.3,491.344l1.392-1.193-1.319.413a3.15,3.15,0,0,1-.739.133,8.746,8.746,0,0,1-1.385-.1,10.86,10.86,0,0,1,1.3-.379,3.773,3.773,0,0,1,.751-.067l1.392,0s-.431-.169-.864-.334-.867-.364-.867-.364a1.787,1.787,0,0,0-1.906.145l-1.47,1.107a9.939,9.939,0,0,0,.878.476c.453.209.912.422.912.422a1.714,1.714,0,0,0,1.925-.258" transform="translate(-45.747 -451.395)" fill="#7b8b5e"/>
      <path id="Path_371" data-name="Path 371" d="M119.057,452.116s.073-.4.141-.806a7.9,7.9,0,0,1,.2-.807l-1.7.653a1.894,1.894,0,0,0-1.254,1.448s-.059.43-.111.872-.089.9-.089.9l.643-1.2a3.191,3.191,0,0,1,.427-.587,9.363,9.363,0,0,1,.992-.87s-.353.7-.63,1.116a3.859,3.859,0,0,1-.466.561l-.966.978,1.661-.764a2,2,0,0,0,1.152-1.492" transform="translate(-107.251 -415.65)" fill="#7b8b5e"/>
      <path id="Path_372" data-name="Path 372" d="M29.882,444.143l1.531-.991-1.373.24a2.867,2.867,0,0,1-.737.028,8.207,8.207,0,0,1-1.321-.294,10.659,10.659,0,0,1,1.319-.2,3.485,3.485,0,0,1,.739.044s.338.052.672.106l.7.075a8.229,8.229,0,0,1-.8-.448l-.78-.492a1.837,1.837,0,0,0-1.932-.1l-1.6.9s.408.291.815.584.806.56.806.56a1.742,1.742,0,0,0,1.959-.007" transform="translate(-24.266 -407.697)" fill="#7b8b5e"/>
      <path id="Path_373" data-name="Path 373" d="M96.138,415.278l.289-.8c.15-.381.3-.767.3-.767l-1.78.42a1.832,1.832,0,0,0-1.416,1.259s-.131.431-.26.865a7.987,7.987,0,0,0-.218.878l.387-.55c.21-.279.422-.555.422-.555a3.13,3.13,0,0,1,.514-.53,9.74,9.74,0,0,1,1.119-.735s-.473.658-.814,1.035a4.6,4.6,0,0,1-.551.5l-1.077.835,1.757-.539a1.962,1.962,0,0,0,1.33-1.314" transform="translate(-85.853 -381.703)" fill="#7b8b5e"/>
      <path id="Path_374" data-name="Path 374" d="M13.163,394.263l1.667-.783-1.373.051a3.231,3.231,0,0,1-.74-.074,8.349,8.349,0,0,1-1.3-.464,11.488,11.488,0,0,1,1.346-.021,3.542,3.542,0,0,1,.738.141l1.326.367s-.363-.275-.725-.556l-.728-.584a1.92,1.92,0,0,0-1.924-.356l-1.7.674.757.682.748.656a1.67,1.67,0,0,0,1.908.266" transform="translate(-8.996 -361.547)" fill="#7b8b5e"/>
      <path id="Path_375" data-name="Path 375" d="M79.476,376.611s.185-.372.367-.745l.373-.718-1.824.182a1.778,1.778,0,0,0-1.551,1.052s-.173.408-.348.815l-.341.842.955-.986a3.223,3.223,0,0,1,.573-.456,9.179,9.179,0,0,1,1.195-.575s-.537.587-.919.911a4.149,4.149,0,0,1-.609.419l-1.2.687,1.8-.293a2.063,2.063,0,0,0,1.526-1.135" transform="translate(-70.261 -346.124)" fill="#7b8b5e"/>
      <path id="Path_376" data-name="Path 376" d="M4.393,342.3l1.747-.549-1.378-.133a3.289,3.289,0,0,1-.731-.17,6,6,0,0,1-.808-.376c-.254-.137-.428-.251-.428-.251a10.543,10.543,0,0,1,1.339.157,3.8,3.8,0,0,1,.719.234l1.289.539s-.336-.322-.665-.643c-.346-.329-.644-.675-.644-.675a1.8,1.8,0,0,0-1.816-.615l-1.786.441.607.781.678.746a1.73,1.73,0,0,0,1.879.514" transform="translate(-1.134 -313.479)" fill="#7b8b5e"/>
      <path id="Path_377" data-name="Path 377" d="M68.964,335.773l.442-.688c.259-.334.514-.666.514-.666l-1.82-.067a1.884,1.884,0,0,0-1.721.839s-.253.377-.455.764-.426.787-.426.787l1.055-.851a3.129,3.129,0,0,1,.619-.37,9.2,9.2,0,0,1,1.262-.411s-.154.125-.361.287-.452.357-.662.493a3.754,3.754,0,0,1-.646.332l-1.267.521,1.828-.051a2,2,0,0,0,1.64-.919" transform="translate(-60.43 -308.482)" fill="#7b8b5e"/>
      <path id="Path_378" data-name="Path 378" d="M1.046,288.757a1.73,1.73,0,0,0,1.8.757l1.8-.313-1.356-.314a2.828,2.828,0,0,1-.686-.266,8.2,8.2,0,0,1-1.1-.784,10.376,10.376,0,0,1,1.3.334,3.474,3.474,0,0,1,.661.327l.576.359c.309.171.611.344.611.344a8.934,8.934,0,0,1-.557-.726c-.263-.376-.521-.753-.521-.753a1.854,1.854,0,0,0-1.744-.847l-1.82.2s.262.428.521.855.525.828.525.828" transform="translate(0 -264.672)" fill="#7b8b5e"/>
      <path id="Path_379" data-name="Path 379" d="M61.356,292.071c.3-.171.605-.345.605-.345a3.47,3.47,0,0,1,.683-.286,9.847,9.847,0,0,1,1.314-.242s-.69.422-1.153.636a3.682,3.682,0,0,1-.705.245l-1.317.35,1.83.191a1.982,1.982,0,0,0,1.741-.693l.577-.622.574-.6-1.8-.306a1.83,1.83,0,0,0-1.791.607s-.288.349-.575.7a8.507,8.507,0,0,0-.55.725s.288-.179.573-.359" transform="translate(-56.081 -267.902)" fill="#7b8b5e"/>
      <path id="Path_380" data-name="Path 380" d="M6.747,235.064a1.673,1.673,0,0,0,1.65.991l1.841-.073-1.282-.492a3.158,3.158,0,0,1-.653-.349,8.484,8.484,0,0,1-1.01-.932,10.646,10.646,0,0,1,1.248.506,3.391,3.391,0,0,1,.621.414l1.077.853s-.223-.4-.449-.795-.442-.819-.442-.819a1.9,1.9,0,0,0-1.635-1.076l-1.825-.042s.214.46.426.921.434.892.434.892" transform="translate(-5.432 -215.206)" fill="#7b8b5e"/>
      <path id="Path_381" data-name="Path 381" d="M62.916,247.948l1.267-.539a3.15,3.15,0,0,1,.707-.195,9.011,9.011,0,0,1,1.324-.066s-.723.328-1.2.48a4.159,4.159,0,0,1-.724.151l-1.372.169,1.771.428a2.057,2.057,0,0,0,1.847-.453l.635-.544c.311-.258.623-.515.623-.515l-1.753-.542a1.773,1.773,0,0,0-1.836.368s-.32.3-.641.614-.645.645-.645.645" transform="translate(-58.049 -227.166)" fill="#7b8b5e"/>
      <path id="Path_382" data-name="Path 382" d="M20.266,180.15a1.721,1.721,0,0,0,1.53,1.21l1.82.169-1.214-.658a3.07,3.07,0,0,1-.607-.437,8.628,8.628,0,0,1-.9-1.064,11.086,11.086,0,0,1,1.176.668,3.925,3.925,0,0,1,.573.5l.973.994s-.18-.423-.359-.849-.339-.876-.339-.876a1.79,1.79,0,0,0-1.431-1.272l-1.818-.289s.117.483.263.96c.166.474.333.948.333.948" transform="translate(-18.148 -164.453)" fill="#7b8b5e"/>
      <path id="Path_383" data-name="Path 383" d="M75.023,204.7l.674-.459c.355-.22.725-.416.725-.416l-1.648-.767a1.878,1.878,0,0,0-1.913.1s-.367.253-.709.527l-.705.56,1.306-.374a3.146,3.146,0,0,1,.718-.1,9.283,9.283,0,0,1,1.312.109,12.033,12.033,0,0,1-1.234.321,4.067,4.067,0,0,1-.73.057l-1.372-.013,1.7.661a2,2,0,0,0,1.873-.206" transform="translate(-65.92 -187.155)" fill="#7b8b5e"/>
      <path id="Path_384" data-name="Path 384" d="M40.976,127.527a1.728,1.728,0,0,0,1.359,1.4l1.777.414-1.126-.819a3.041,3.041,0,0,1-.527-.51,7.927,7.927,0,0,1-.708-1.159,11.181,11.181,0,0,1,1.062.815,3.572,3.572,0,0,1,.48.562s.2.277.393.555l.426.557a8.653,8.653,0,0,1-.227-.884c-.094-.452-.191-.9-.191-.9a1.851,1.851,0,0,0-1.271-1.462l-1.756-.528.15.994Z" transform="translate(-37.519 -115.849)" fill="#7b8b5e"/>
      <path id="Path_385" data-name="Path 385" d="M85.91,161.968l.671-.105.687-.082a3.326,3.326,0,0,1,.743.005,9.5,9.5,0,0,1,1.3.293s-.8.12-1.308.135a4.38,4.38,0,0,1-.743-.05l-1.352-.2,1.611.891a2,2,0,0,0,1.876.042s.383-.174.772-.347.758-.325.758-.325l-1.542-.982A1.816,1.816,0,0,0,87.5,161.1l-.8.416c-.415.209-.788.451-.788.451" transform="translate(-79.264 -148.454)" fill="#7b8b5e"/>
      <path id="Path_386" data-name="Path 386" d="M68.213,77.98a1.686,1.686,0,0,0,1.133,1.561l1.721.654-.99-.956a2.789,2.789,0,0,1-.461-.581,8.526,8.526,0,0,1-.571-1.255,11.43,11.43,0,0,1,.952.953,3.868,3.868,0,0,1,.413.627l.658,1.211s-.051-.454-.105-.91-.092-.931-.092-.931A1.877,1.877,0,0,0,69.8,76.733l-1.68-.766.036,1.017c.026.5.055,1,.055,1" transform="translate(-62.852 -70.09)" fill="#7b8b5e"/>
      <path id="Path_387" data-name="Path 387" d="M110.216,123.148l.792-.256.771-.236-1.386-1.178a1.8,1.8,0,0,0-1.843-.389l-.828.32-.842.341h1.373a3.014,3.014,0,0,1,.724.094,9.655,9.655,0,0,1,1.244.458s-.8.023-1.294-.026a4.319,4.319,0,0,1-.721-.142l-1.326-.384,1.46,1.09a2.056,2.056,0,0,0,1.876.308" transform="translate(-98.611 -111.619)" fill="#7b8b5e"/>
      <path id="Path_388" data-name="Path 388" d="M123.554,55.771a1.81,1.81,0,0,0,1.23-1.478l.237-1.823-.951.293a7.9,7.9,0,0,0-.932.34,1.752,1.752,0,0,0-1.169,1.572l-.116,1.827.623-1.237a3.138,3.138,0,0,1,.425-.627,6.742,6.742,0,0,1,1.027-.9,9.977,9.977,0,0,1-.629,1.176,4.71,4.71,0,0,1-.474.58l-.971,1.01s.419-.2.843-.4.858-.335.858-.335" transform="translate(-112.426 -48.411)" fill="#7b8b5e"/>
      <path id="Path_389" data-name="Path 389" d="M269.944,612.177l-.307.066-2.273.461-1.77-1.943-.3,2.617-2.4,1.1,2.4,1.085.293,2.614,1.78-1.941.914.185,1.659.344-1.124-1.994-.17-.3.629-1.1Z" transform="translate(-242.56 -563.51)" fill="#7b8b5e"/>
      <path id="Path_390" data-name="Path 390" d="M166.267,556.694l-1.056-2.406-1.119,2.385-2.622.266,1.922,1.8-.564,2.567,2.309-1.265.8.467,1.466.859-.427-2.251-.06-.334.941-.849,1.017-.911-.313-.034Z" transform="translate(-148.978 -511.406)" fill="#7b8b5e"/>
      <path id="Path_391" data-name="Path 391" d="M382.365,635.619l-2.285,1.3-2.017-1.141-.276-.158.276,1.336.254,1.242-.254.232-1.69,1.547,1.69.188.923.107,1.094,2.392,1.088-2.392,2.609-.3-1.936-1.779Z" transform="translate(-347.255 -586.445)" fill="#7b8b5e"/>
      <path id="Path_392" data-name="Path 392" d="M498.893,610.761l-1.771,1.943-2.275-.461-.306-.066.672,1.187.626,1.1-.171.3-1.125,1.994,1.662-.344.914-.185,1.782,1.941.289-2.614,2.4-1.085-2.4-1.1Z" transform="translate(-456.282 -563.51)" fill="#7b8b5e"/>
      <path id="Path_393" data-name="Path 393" d="M596.063,556.673l-1.12-2.385-1.054,2.405-2.3.292-.313.035,1.016.911.943.849-.061.334-.428,2.251,1.465-.859.8-.467,2.31,1.265-.564-2.567,1.923-1.8Z" transform="translate(-545.533 -511.406)" fill="#7b8b5e"/>
      <path id="Path_394" data-name="Path 394" d="M326.181,16.38a8.19,8.19,0,1,0-8.189-8.194,8.193,8.193,0,0,0,8.189,8.194" transform="translate(-293.391 2)" fill="none" stroke="#7b8b5e" stroke-width="2"/>
      <path id="Path_395" data-name="Path 395" d="M253.367,254.606h24.424a1.062,1.062,0,0,0,1.06-1.062v-8.058a6.651,6.651,0,0,0-6.634-6.637H258.945a6.656,6.656,0,0,0-6.638,6.637v8.058a1.062,1.062,0,0,0,1.06,1.062" transform="translate(-232.787 -217.37)" fill="none" stroke="#7b8b5e" stroke-width="2"/>
    </g>
  </g>
</svg>
