<svg xmlns="http://www.w3.org/2000/svg" xmlns:xlink="http://www.w3.org/1999/xlink" width="90" height="90" viewBox="0 0 90 90">
  <defs>
    <clipPath id="clip-path">
      <rect id="Rectangle_143" data-name="Rectangle 143" width="32.543" height="53.583" fill="#7b8b5e"/>
    </clipPath>
  </defs>
  <g id="Group_805" data-name="Group 805" transform="translate(-778 -7778)">
    <g id="Ellipse_1" data-name="Ellipse 1" transform="translate(778 7778)" fill="#fff" stroke="#707070" stroke-width="1">
      <circle cx="45" cy="45" r="45" stroke="none"/>
      <circle cx="45" cy="45" r="44.5" fill="none"/>
    </g>
    <g id="Group_797" data-name="Group 797" transform="translate(806.621 7795.417)" clip-path="url(#clip-path)">
      <path id="Path_403" data-name="Path 403" d="M15.135,46.3a1.384,1.384,0,0,0,2.272,0c.625-.9,1.406-1.95,2.31-3.167,4.873-6.564,13.029-17.546,12.821-26.881A16.268,16.268,0,0,0,0,16.245c-.211,9.336,7.947,20.322,12.822,26.887.905,1.219,1.687,2.272,2.31,3.166M1.915,16.279v-.022a14.356,14.356,0,0,1,28.712.005v.022c.2,8.68-7.716,19.34-12.444,25.708-.718.967-1.359,1.83-1.912,2.6-.552-.771-1.193-1.634-1.911-2.6C9.63,35.622,1.714,24.96,1.915,16.279" transform="translate(0 0.001)" fill="#7b8b5e"/>
      <path id="Path_404" data-name="Path 404" d="M85.166,71.848a9.7,9.7,0,1,0-9.7,9.7,9.714,9.714,0,0,0,9.7-9.7m-17.494,0a7.791,7.791,0,1,1,7.791,7.791,7.8,7.8,0,0,1-7.791-7.791" transform="translate(-59.192 -55.938)" fill="#7b8b5e"/>
      <path id="Path_405" data-name="Path 405" d="M26.633,399.719a.956.956,0,1,0-.676,1.788c2.927,1.108,4.675,2.665,4.675,4.165,0,2.712-5.9,5.735-14.36,5.735s-14.36-3.022-14.36-5.735c0-1.5,1.748-3.057,4.675-4.165a.956.956,0,0,0-.676-1.788C2.1,401.161,0,403.275,0,405.672c0,2.19,1.8,4.182,5.059,5.607a28.837,28.837,0,0,0,11.212,2.039,28.838,28.838,0,0,0,11.212-2.039c3.262-1.425,5.059-3.416,5.059-5.607,0-2.4-2.1-4.511-5.91-5.953" transform="translate(0 -359.735)" fill="#7b8b5e"/>
    </g>
  </g>
</svg>
