<svg xmlns="http://www.w3.org/2000/svg" xmlns:xlink="http://www.w3.org/1999/xlink" width="90" height="90" viewBox="0 0 90 90">
  <defs>
    <clipPath id="clip-path">
      <rect id="Rectangle_146" data-name="Rectangle 146" width="54.607" height="56.019" transform="translate(-2 -2)" fill="none" stroke="#7b8b5e" stroke-width="1.3"/>
    </clipPath>
  </defs>
  <g id="Group_806" data-name="Group 806" transform="translate(-1492 -7818)">
    <g id="Component_11_1" data-name="Component 11 – 1" transform="translate(1492 7818)">
      <g id="Ellipse_1" data-name="Ellipse 1" fill="#fff" stroke="#707070" stroke-width="1">
        <circle cx="45" cy="45" r="45" stroke="none"/>
        <circle cx="45" cy="45" r="44.5" fill="none"/>
      </g>
    </g>
    <g id="Group_800" data-name="Group 800" transform="translate(1511.242 7834.458)">
      <g id="Group_799" data-name="Group 799" transform="translate(0 1.75)" clip-path="url(#clip-path)">
        <path id="Path_406" data-name="Path 406" d="M15.063,167.6c-.013-1.782-.643-2.327-1.794-3.742l-5.692-6.995a14.25,14.25,0,0,1-3.077-8.8V136.382a2.75,2.75,0,0,1,2.83-2.663,2.749,2.749,0,0,1,2.829,2.681l-.064,9.184a8.6,8.6,0,0,0,2.42,6l4.915,5.149.023,0-5.3-5.545a2.851,2.851,0,0,1-.233-3.824,3.183,3.183,0,0,1,4.669-.136l6.508,5.466a8.176,8.176,0,0,1,2.977,6.256V167.6" transform="translate(-4.012 -120.201)" fill="none" stroke="#7b8b5e" stroke-linecap="round" stroke-linejoin="round" stroke-width="1.3"/>
        <rect id="Rectangle_144" data-name="Rectangle 144" width="14.015" height="4.282" rx="2.141" transform="translate(9.413 47.397)" fill="none" stroke="#7b8b5e" stroke-linecap="round" stroke-linejoin="round" stroke-width="1.3"/>
        <path id="Path_407" data-name="Path 407" d="M274.452,167.6c.013-1.782.643-2.327,1.794-3.742l5.692-6.995a14.251,14.251,0,0,0,3.077-8.8V136.382a2.834,2.834,0,0,0-5.659.018l.064,9.184a8.6,8.6,0,0,1-2.42,6l-4.915,5.149-.023,0,5.3-5.545a2.851,2.851,0,0,0,.233-3.824,3.183,3.183,0,0,0-4.669-.136l-6.508,5.466a8.176,8.176,0,0,0-2.977,6.256V167.6" transform="translate(-234.895 -120.201)" fill="none" stroke="#7b8b5e" stroke-linecap="round" stroke-linejoin="round" stroke-width="1.3"/>
        <rect id="Rectangle_145" data-name="Rectangle 145" width="14.015" height="4.282" rx="2.141" transform="translate(27.179 47.397)" fill="none" stroke="#7b8b5e" stroke-linecap="round" stroke-linejoin="round" stroke-width="1.3"/>
        <path id="Path_408" data-name="Path 408" d="M81.356,8.517A12.515,12.515,0,0,1,90.6,4.5c5.474,0,9.246,4.428,9.246,9.675,0,7.256-7.525,12.06-18.493,21.222C70.388,26.235,62.863,21.431,62.863,14.175c0-5.247,3.773-9.675,9.246-9.675A12.515,12.515,0,0,1,81.356,8.517Z" transform="translate(-56.052 -4.159)" fill="none" stroke="#7b8b5e" stroke-linecap="round" stroke-linejoin="round" stroke-width="1.3"/>
        <path id="Path_409" data-name="Path 409" d="M184.349,88.057h-4.492v4.226h-4.626V88.057H170.74V83.7h4.492V79.477h4.626V83.7h4.492Z" transform="translate(-152.241 -71.49)" fill="none" stroke="#7b8b5e" stroke-linecap="round" stroke-linejoin="round" stroke-width="1.3"/>
      </g>
    </g>
  </g>
</svg>
