<svg xmlns="http://www.w3.org/2000/svg" xmlns:xlink="http://www.w3.org/1999/xlink" width="90" height="90" viewBox="0 0 90 90">
  <defs>
    <clipPath id="clip-path">
      <rect id="Rectangle_51" data-name="Rectangle 51" width="67.777" height="37.593" transform="translate(0 0)" fill="#88947c"/>
    </clipPath>
  </defs>
  <g id="Group_801" data-name="Group 801" transform="translate(-720 -2555)">
    <g id="Component_11_2" data-name="Component 11 – 2" transform="translate(720 2555)">
      <g id="Ellipse_1" data-name="Ellipse 1" fill="#fff" stroke="#707070" stroke-width="1">
        <circle cx="45" cy="45" r="45" stroke="none"/>
        <circle cx="45" cy="45" r="44.5" fill="none"/>
      </g>
    </g>
    <g id="Group_52" data-name="Group 52" transform="translate(732.242 2581.472)">
      <g id="Group_51" data-name="Group 51" transform="translate(0 -0.002)" clip-path="url(#clip-path)">
        <path id="Path_45" data-name="Path 45" d="M1729.891,482.423a10.481,10.481,0,0,0,1.85-7.829.7.7,0,0,0-1.373.223,9.13,9.13,0,0,1-7.543,10.461,9.243,9.243,0,0,1-1.478.12,9.125,9.125,0,0,1-8.982-7.662.7.7,0,0,0-1.373.223,10.507,10.507,0,0,0,10.36,8.831,10.593,10.593,0,0,0,1.7-.138,10.48,10.48,0,0,0,6.844-4.228" transform="translate(-1671.308 -463.018)" fill="#88947c"/>
        <path id="Path_46" data-name="Path 46" d="M1714.926,7.568a.7.7,0,0,0-.8-.575l-7.115,1.153a10.511,10.511,0,0,0-20.617,4.046.7.7,0,0,0,.8.575l4.724-.766h0l4.964-.8,9.689-1.57,7.779-1.261a.7.7,0,0,0,.575-.8m-16.675,2-5.856.949a14.41,14.41,0,0,1,.418-6.072,5.989,5.989,0,0,1,1.1-2.087,2.18,2.18,0,0,1,2.99-.485,5.986,5.986,0,0,1,1.706,1.632,14.41,14.41,0,0,1,2.314,5.63Zm-6.24-6.833a8.949,8.949,0,0,0-.521,1.282,15.856,15.856,0,0,0-.468,6.723l-3.337.541a9.139,9.139,0,0,1,4.326-8.546M1702.3,8.91a15.853,15.853,0,0,0-2.567-6.231,8.959,8.959,0,0,0-.9-1.051,9.139,9.139,0,0,1,6.8,6.742Z" transform="translate(-1647.159 0.002)" fill="#88947c"/>
        <path id="Path_47" data-name="Path 47" d="M1587.577,1011.351a.7.7,0,0,0-.97-.164,12.627,12.627,0,0,0-3.748,4.157,11.13,11.13,0,0,0-1.407,5.427v3.693a.7.7,0,1,0,1.391,0v-3.693a10.36,10.36,0,0,1,4.569-8.451.7.7,0,0,0,.164-.97" transform="translate(-1544.782 -987.614)" fill="#88947c"/>
        <path id="Path_48" data-name="Path 48" d="M2473.725,1011.188a.7.7,0,0,0-.806,1.134,10.36,10.36,0,0,1,4.569,8.45v3.693a.7.7,0,1,0,1.391,0v-3.693a11.128,11.128,0,0,0-1.407-5.427,12.633,12.633,0,0,0-3.748-4.158" transform="translate(-2415.292 -987.615)" fill="#88947c"/>
        <path id="Path_49" data-name="Path 49" d="M1850.161,1382.2a.7.7,0,0,0-.7.7V1387a.7.7,0,0,0,1.391,0v-4.105a.7.7,0,0,0-.7-.7" transform="translate(-1806.581 -1350.147)" fill="#88947c"/>
        <path id="Path_50" data-name="Path 50" d="M2413.458,1382.2a.7.7,0,0,0-.7.7V1387a.7.7,0,0,0,1.391,0v-4.105a.7.7,0,0,0-.7-.7" transform="translate(-2356.816 -1350.147)" fill="#88947c"/>
        <path id="Path_51" data-name="Path 51" d="M192.971,1013.379a.7.7,0,0,0-.97-.164,12.628,12.628,0,0,0-3.748,4.158,11.13,11.13,0,0,0-1.407,5.427v3.693a.7.7,0,0,0,1.391,0V1022.8a10.361,10.361,0,0,1,4.569-8.451.7.7,0,0,0,.164-.97" transform="translate(-182.513 -989.595)" fill="#88947c"/>
        <path id="Path_52" data-name="Path 52" d="M1079.117,1013.215a.7.7,0,1,0-.805,1.134,10.361,10.361,0,0,1,4.569,8.451v3.693a.7.7,0,1,0,1.391,0V1022.8a11.129,11.129,0,0,0-1.407-5.427,12.626,12.626,0,0,0-3.748-4.157" transform="translate(-1053.021 -989.595)" fill="#88947c"/>
        <path id="Path_53" data-name="Path 53" d="M455.554,1384.224a.7.7,0,0,0-.7.7v4.105a.7.7,0,1,0,1.391,0v-4.105a.7.7,0,0,0-.7-.7" transform="translate(-444.311 -1352.127)" fill="#88947c"/>
        <path id="Path_54" data-name="Path 54" d="M1018.851,1384.224a.7.7,0,0,0-.7.7v4.105a.7.7,0,1,0,1.391,0v-4.105a.7.7,0,0,0-.7-.7" transform="translate(-994.546 -1352.127)" fill="#88947c"/>
        <path id="Path_55" data-name="Path 55" d="M34.049,74.817a23.054,23.054,0,0,1,.538-4.076,6.507,6.507,0,0,0,.064-3.585,4.48,4.48,0,0,0-2.231-2.735,4.941,4.941,0,0,0-3.831-.212,5.974,5.974,0,0,0-2.654,1.768,10.789,10.789,0,0,0-1.28,1.868,10.438,10.438,0,0,0-13.744,0,10.788,10.788,0,0,0-1.28-1.868,5.974,5.974,0,0,0-2.655-1.768,4.941,4.941,0,0,0-3.831.212A4.48,4.48,0,0,0,.916,67.156,6.507,6.507,0,0,0,.98,70.741a23.054,23.054,0,0,1,.538,4.076A7.39,7.39,0,0,1,.34,79.466c-.232.369-.433.687-.3,1.084a.789.789,0,0,0,.486.483.869.869,0,0,0,.3.052,2.574,2.574,0,0,0,1.206-.426,9.934,9.934,0,0,0,2.506-2.11,8.144,8.144,0,0,0,1.888-3.73,9.448,9.448,0,0,0,.034-3.15,4.28,4.28,0,0,1-.058-.923c.013-.09.022-.1.081-.126a2.3,2.3,0,0,1,.9.088,4.81,4.81,0,0,1,1.028.348l.006,0q-.144.289-.27.587a10.448,10.448,0,1,0,19.253,0q-.126-.3-.27-.587l.006,0a4.809,4.809,0,0,1,1.028-.348,2.3,2.3,0,0,1,.9-.088c.059.028.068.036.081.126a4.276,4.276,0,0,1-.058.923,9.447,9.447,0,0,0,.034,3.15,8.144,8.144,0,0,0,1.888,3.73,9.935,9.935,0,0,0,2.506,2.11,2.574,2.574,0,0,0,1.206.426.87.87,0,0,0,.3-.052.789.789,0,0,0,.486-.483c.137-.4-.064-.716-.3-1.084a7.39,7.39,0,0,1-1.178-4.648M17.784,66.658A9.067,9.067,0,0,1,26.84,75.6a14.046,14.046,0,0,1-8.468-5.874.7.7,0,0,0-1.177,0A14.026,14.026,0,0,1,8.728,75.6a9.067,9.067,0,0,1,9.056-8.944m-8.7,3.177a6.135,6.135,0,0,0-1.447-.5,2.773,2.773,0,0,0-1.74.023,1.479,1.479,0,0,0-.867,1.18,4.969,4.969,0,0,0,.053,1.3,8.13,8.13,0,0,1-.018,2.713,7.255,7.255,0,0,1-2.144,3.693c-.23.223-.457.42-.673.59.066-.158.131-.326.192-.506a9.789,9.789,0,0,0,.465-3.567,24.272,24.272,0,0,0-.566-4.3,5.232,5.232,0,0,1-.1-2.888,3.119,3.119,0,0,1,1.538-1.913,3.564,3.564,0,0,1,2.759-.129A6.039,6.039,0,0,1,9.83,68.759l.062.109a10.418,10.418,0,0,0-.764.993l-.042-.025m8.7,14.936A9.071,9.071,0,0,1,8.82,77.013a15.728,15.728,0,0,0,8.964-5.687,15.753,15.753,0,0,0,8.964,5.687,9.071,9.071,0,0,1-8.964,7.759m15.341-6.445c.061.18.126.349.192.506-.215-.17-.442-.367-.673-.59A7.255,7.255,0,0,1,30.5,74.551a8.129,8.129,0,0,1-.018-2.713,4.967,4.967,0,0,0,.053-1.3,1.479,1.479,0,0,0-.867-1.18,2.773,2.773,0,0,0-1.74-.023,6.135,6.135,0,0,0-1.447.5l-.042.025a10.421,10.421,0,0,0-.764-.993l.062-.109a6.039,6.039,0,0,1,3.289-3.229,3.564,3.564,0,0,1,2.759.129,3.119,3.119,0,0,1,1.538,1.913,5.232,5.232,0,0,1-.1,2.888,24.273,24.273,0,0,0-.566,4.3,9.789,9.789,0,0,0,.465,3.567" transform="translate(0 -62.441)" fill="#88947c"/>
      </g>
    </g>
  </g>
</svg>
