<svg xmlns="http://www.w3.org/2000/svg" xmlns:xlink="http://www.w3.org/1999/xlink" width="90" height="90" viewBox="0 0 90 90">
  <defs>
    <clipPath id="clip-path">
      <rect id="Rectangle_52" data-name="Rectangle 52" width="44.373" height="58.545" fill="#88947c"/>
    </clipPath>
  </defs>
  <g id="Group_804" data-name="Group 804" transform="translate(-1275 -2527)">
    <g id="Component_11_3" data-name="Component 11 – 3" transform="translate(1275 2527)">
      <g id="Ellipse_1" data-name="Ellipse 1" fill="#fff" stroke="#707070" stroke-width="1">
        <circle cx="45" cy="45" r="45" stroke="none"/>
        <circle cx="45" cy="45" r="44.5" fill="none"/>
      </g>
    </g>
    <g id="Group_54" data-name="Group 54" transform="translate(1298.229 2541.983)">
      <g id="Group_53" data-name="Group 53" clip-path="url(#clip-path)">
        <path id="Path_56" data-name="Path 56" d="M0,53.444V29.321a2.873,2.873,0,0,1,2.87-2.869H3.932V23.9a9.111,9.111,0,0,1,9.1-9.1h2.237A9.982,9.982,0,0,1,20.79,13.09a6.622,6.622,0,1,1,2.8,0h1.1a9.907,9.907,0,0,1,3.4.618A10.018,10.018,0,0,1,30.251,14.8h1.092a9.111,9.111,0,0,1,9.1,9.1v1.24a3.7,3.7,0,0,1,.3,1.31H41.5a2.873,2.873,0,0,1,2.869,2.869v24.04a1.111,1.111,0,0,1-1.11,1.11H41.3V56.3a2.252,2.252,0,0,1-2.249,2.249h-.03A2.252,2.252,0,0,1,36.768,56.3V54.554H23.813a3.857,3.857,0,0,1-7.688,0H7.6V56.3a2.264,2.264,0,0,1-4.529,0V54.554H1.11A1.111,1.111,0,0,1,0,53.444M1.512,29.321V53.042H6.093V29.75l-.226-1.176a1.356,1.356,0,0,0-1.132-.61H2.87a1.359,1.359,0,0,0-1.358,1.358M5.444,23.9v.839c.088.014.173.035.259.053a3.682,3.682,0,0,1,.8-1.266l7-7.218H13.03A7.6,7.6,0,0,0,5.444,23.9m15.385-9.3a8.457,8.457,0,0,0-6.042,2.557l-7.2,7.423a2.181,2.181,0,0,0-.576,1.926L8.14,32.39a2.177,2.177,0,0,0,4.276-.823L11.5,26.8l5.419-5.584v6.408a3.814,3.814,0,0,1,3.864,1.3l7.281,8.852a3.854,3.854,0,0,1,.355.519,5.782,5.782,0,0,0,.1-1.017V21.1l6.041,6.064-1.779,4.962a2.176,2.176,0,0,0,4.1,1.47l2.246-6.258a2.177,2.177,0,0,0-.506-2.266l-7.955-7.99A8.462,8.462,0,0,0,24.689,14.6ZM41.5,27.964h-1.01l-2.2,6.138c0,.008-.008.015-.011.024V52.96h4.581V29.321A1.359,1.359,0,0,0,41.5,27.964M39.785,56.3V54.472h-1.5V56.3a.738.738,0,0,0,.737.737h.03a.738.738,0,0,0,.737-.737M22.317,54.227v-11.3c-.076-.078-.15-.157-.22-.242L18.657,38.5,17.62,40.655V54.227a2.349,2.349,0,0,0,4.7,0M6.093,56.3V54.554H4.588V56.3a.753.753,0,0,0,1.505,0M15.4,24.942,13.13,27.285l.673,3.492.516-1.073A3.85,3.85,0,0,1,15.4,28.355Zm4.208,4.943a2.336,2.336,0,0,0-1.809-.857,2.365,2.365,0,0,0-.286.017,2.338,2.338,0,0,0-1.835,1.314L8.143,46.04a2.348,2.348,0,0,0,1.1,3.134,2.457,2.457,0,0,0,1.015.232h0a2.363,2.363,0,0,0,2.119-1.332L18.32,35.709l4.945,6.012a2.348,2.348,0,1,0,3.627-2.984Zm10.411,7.394a7.265,7.265,0,0,1-.542,2.752H35v-3.5c-.06,0-.117.014-.177.014a3.688,3.688,0,0,1-3.471-4.933l1.456-4.062-2.783-2.794ZM35,43.581l-8.036.016a3.811,3.811,0,0,1-1.575.478,7.242,7.242,0,0,1-1.557.419v8.544l11.168,0ZM11.565,35.432a3.711,3.711,0,0,1-.59.168,3.659,3.659,0,0,1-1.6-.048v4.434Zm-3.7,6.111V34.764q-.136-.117-.259-.246V43.67l.259-.539V42.123h.485l.278-.579Zm1.512,11.5,6.733,0V43.8l-2.37,4.931a3.883,3.883,0,0,1-3.481,2.188h0a3.827,3.827,0,0,1-.881-.1ZM36.509,42.067V53.042h.259V35.975c-.085.053-.17.108-.259.155v5.413H28.7a3.817,3.817,0,0,1-.241.539ZM5.444,26.277v.267l.05.013c-.011-.092-.023-.183-.028-.275l-.022-.006M7.6,53.042h.259v-2.96c-.09-.071-.177-.144-.259-.223v3.182Zm24.452-36.7,6.838,6.867a7.6,7.6,0,0,0-6.838-6.867M17.078,6.621a5.109,5.109,0,1,0,5.109-5.109,5.115,5.115,0,0,0-5.109,5.109" transform="translate(0 0)" fill="#88947c"/>
      </g>
    </g>
  </g>
</svg>
