<svg xmlns="http://www.w3.org/2000/svg" xmlns:xlink="http://www.w3.org/1999/xlink" width="90" height="90" viewBox="0 0 90 90">
  <defs>
    <clipPath id="clip-path">
      <rect id="Rectangle_58" data-name="Rectangle 58" width="64.102" height="41.178" transform="translate(0 0)" fill="none" stroke="#88947c" stroke-width="1"/>
    </clipPath>
  </defs>
  <g id="Group_802" data-name="Group 802" transform="translate(-140 -3025)">
    <g id="Component_11_4" data-name="Component 11 – 4" transform="translate(140 3025)">
      <g id="Ellipse_1" data-name="Ellipse 1" fill="#fff" stroke="#707070" stroke-width="1">
        <circle cx="45" cy="45" r="45" stroke="none"/>
        <circle cx="45" cy="45" r="44.5" fill="none"/>
      </g>
    </g>
    <g id="Group_56" data-name="Group 56" transform="translate(153.361 3047.133)">
      <g id="Group_55" data-name="Group 55" transform="translate(0 0.001)" clip-path="url(#clip-path)">
        <rect id="Rectangle_53" data-name="Rectangle 53" width="25.831" height="19.452" transform="translate(18.08 21.186)" fill="none" stroke="#88947c" stroke-miterlimit="10" stroke-width="1"/>
        <path id="Path_57" data-name="Path 57" d="M23.038,28.711a24.781,24.781,0,0,0-2.8,5.439l5.785.128a2.277,2.277,0,0,1,2.1,3.012L24.243,48.673a2.064,2.064,0,0,1-3.935-1.243l2.609-8.969H15.28a2.893,2.893,0,0,1-2.707-3.913L18.38,22.463A3.281,3.281,0,0,1,21.2,20.606l1.289-.054c2.7-.112,3.878,1.08,1.943,2.969" transform="translate(-5.686 -9.433)" fill="none" stroke="#88947c" stroke-miterlimit="10" stroke-width="1"/>
        <circle id="Ellipse_8" data-name="Ellipse 8" cx="5.129" cy="5.129" r="5.129" transform="translate(12.951 1.033)" fill="none" stroke="#88947c" stroke-miterlimit="10" stroke-width="1"/>
        <rect id="Rectangle_54" data-name="Rectangle 54" width="14.571" height="4.324" rx="2.162" transform="translate(0.541 29.028)" fill="none" stroke="#88947c" stroke-miterlimit="10" stroke-width="1"/>
        <rect id="Rectangle_55" data-name="Rectangle 55" width="4.324" height="14.571" rx="2.162" transform="translate(0.541 9.273)" fill="none" stroke="#88947c" stroke-miterlimit="10" stroke-width="1"/>
        <line id="Line_9" data-name="Line 9" y2="5.184" transform="translate(2.703 23.844)" fill="none" stroke="#88947c" stroke-miterlimit="10" stroke-width="1"/>
        <line id="Line_10" data-name="Line 10" y2="7.447" transform="translate(11.924 33.352)" fill="none" stroke="#88947c" stroke-miterlimit="10" stroke-width="1"/>
        <line id="Line_11" data-name="Line 11" y2="7.447" transform="translate(3.505 33.352)" fill="none" stroke="#88947c" stroke-miterlimit="10" stroke-width="1"/>
        <line id="Line_12" data-name="Line 12" x2="4.184" transform="translate(15.112 37.076)" fill="none" stroke="#88947c" stroke-miterlimit="10" stroke-width="1"/>
        <path id="Path_58" data-name="Path 58" d="M31.3,22.888l2.53,5.4,1.6-6.8a1.676,1.676,0,0,1,3.279.694l-1.581,8.4a3.339,3.339,0,0,1-6.315.777l-3.762-8.187" transform="translate(-12.42 -9.272)" fill="none" stroke="#88947c" stroke-miterlimit="10" stroke-width="1"/>
        <line id="Line_13" data-name="Line 13" x1="2.882" y1="8.172" transform="translate(37.157 12.609)" fill="none" stroke="#88947c" stroke-miterlimit="10" stroke-width="1"/>
        <line id="Line_14" data-name="Line 14" y1="8.172" x2="2.882" transform="translate(28.956 12.609)" fill="none" stroke="#88947c" stroke-miterlimit="10" stroke-width="1"/>
        <path id="Path_59" data-name="Path 59" d="M81.327,25.265c-.028.306-1.455,7.992-1.478,8.31l-7.1.5A3.455,3.455,0,0,0,69.689,36.5L66.456,47.019a2.062,2.062,0,0,0,3.91,1.307l3.891-10.388H84.515a3.192,3.192,0,0,0,3.178-2.891l1.14-12.025a2.964,2.964,0,0,0-1.471-2.848,3.2,3.2,0,0,0-4.393,1.193,21.2,21.2,0,0,0-1.85,4.6" transform="translate(-30.468 -9.065)" fill="none" stroke="#88947c" stroke-miterlimit="10" stroke-width="1"/>
        <path id="Path_60" data-name="Path 60" d="M95.067,6.191A5.191,5.191,0,1,1,89.876,1,5.191,5.191,0,0,1,95.067,6.191Z" transform="translate(-38.88 -0.459)" fill="none" stroke="#88947c" stroke-miterlimit="10" stroke-width="1"/>
        <rect id="Rectangle_56" data-name="Rectangle 56" width="14.747" height="4.376" rx="2.188" transform="translate(48.814 28.873)" fill="none" stroke="#88947c" stroke-miterlimit="10" stroke-width="1"/>
        <rect id="Rectangle_57" data-name="Rectangle 57" width="4.376" height="14.747" rx="2.188" transform="translate(59.185 8.88)" fill="none" stroke="#88947c" stroke-miterlimit="10" stroke-width="1"/>
        <line id="Line_15" data-name="Line 15" y2="5.247" transform="translate(61.373 23.627)" fill="none" stroke="#88947c" stroke-miterlimit="10" stroke-width="1"/>
        <line id="Line_16" data-name="Line 16" y2="7.537" transform="translate(52.041 33.249)" fill="none" stroke="#88947c" stroke-miterlimit="10" stroke-width="1"/>
        <line id="Line_17" data-name="Line 17" y2="7.537" transform="translate(60.561 33.249)" fill="none" stroke="#88947c" stroke-miterlimit="10" stroke-width="1"/>
        <path id="Path_61" data-name="Path 61" d="M86.646,21.2l-5.191,5.3h-6.49a2.085,2.085,0,1,0,0,4.17h7.309l7.373-7.131" transform="translate(-33.46 -9.732)" fill="none" stroke="#88947c" stroke-miterlimit="10" stroke-width="1"/>
      </g>
    </g>
  </g>
</svg>
