<svg xmlns="http://www.w3.org/2000/svg" xmlns:xlink="http://www.w3.org/1999/xlink" width="90" height="90" viewBox="0 0 90 90">
  <defs>
    <clipPath id="clip-path">
      <rect id="Rectangle_60" data-name="Rectangle 60" width="50.848" height="47.119" fill="none" stroke="#88947c" stroke-width="1.5"/>
    </clipPath>
  </defs>
  <g id="Group_803" data-name="Group 803" transform="translate(-720 -3025)">
    <g id="Component_11_5" data-name="Component 11 – 5" transform="translate(720 3025)">
      <g id="Ellipse_1" data-name="Ellipse 1" fill="#fff" stroke="#707070" stroke-width="1">
        <circle cx="45" cy="45" r="45" stroke="none"/>
        <circle cx="45" cy="45" r="44.5" fill="none"/>
      </g>
    </g>
    <g id="Group_67" data-name="Group 67" transform="translate(739.531 3043.272)">
      <line id="Line_31" data-name="Line 31" x1="0.164" y1="0.164" transform="translate(41.643 17.084)" fill="none" stroke="#88947c" stroke-linecap="round" stroke-linejoin="round" stroke-width="1.5"/>
      <line id="Line_32" data-name="Line 32" x1="0.164" y1="0.164" transform="translate(43.992 19.433)" fill="none" stroke="#88947c" stroke-linecap="round" stroke-linejoin="round" stroke-width="1.5"/>
      <line id="Line_33" data-name="Line 33" x1="0.164" y2="0.164" transform="translate(41.643 19.433)" fill="none" stroke="#88947c" stroke-linecap="round" stroke-linejoin="round" stroke-width="1.5"/>
      <line id="Line_34" data-name="Line 34" x1="0.164" y2="0.164" transform="translate(43.992 17.084)" fill="none" stroke="#88947c" stroke-linecap="round" stroke-linejoin="round" stroke-width="1.5"/>
      <line id="Line_35" data-name="Line 35" y1="0.525" x2="0.525" transform="translate(46.415 6.602)" fill="none" stroke="#88947c" stroke-linecap="round" stroke-linejoin="round" stroke-width="1.5"/>
      <g id="Group_60" data-name="Group 60">
        <g id="Group_59" data-name="Group 59" clip-path="url(#clip-path)">
          <line id="Line_36" data-name="Line 36" y1="0.525" x2="0.525" transform="translate(49.25 3.767)" fill="none" stroke="#88947c" stroke-linecap="round" stroke-linejoin="round" stroke-width="1.5"/>
          <line id="Line_37" data-name="Line 37" x1="0.525" y1="0.525" transform="translate(49.25 6.602)" fill="none" stroke="#88947c" stroke-linecap="round" stroke-linejoin="round" stroke-width="1.5"/>
        </g>
      </g>
      <line id="Line_38" data-name="Line 38" x1="0.525" y1="0.525" transform="translate(46.415 3.767)" fill="none" stroke="#88947c" stroke-linecap="round" stroke-linejoin="round" stroke-width="1.5"/>
      <g id="Group_62" data-name="Group 62">
        <g id="Group_61" data-name="Group 61" clip-path="url(#clip-path)">
          <line id="Line_39" data-name="Line 39" x1="0.164" y1="0.164" transform="translate(6.751 0.77)" fill="none" stroke="#88947c" stroke-linecap="round" stroke-linejoin="round" stroke-width="1.5"/>
        </g>
      </g>
      <line id="Line_40" data-name="Line 40" x1="0.164" y1="0.164" transform="translate(9.1 3.119)" fill="none" stroke="#88947c" stroke-linecap="round" stroke-linejoin="round" stroke-width="1.5"/>
      <line id="Line_41" data-name="Line 41" x1="0.164" y2="0.164" transform="translate(6.751 3.119)" fill="none" stroke="#88947c" stroke-linecap="round" stroke-linejoin="round" stroke-width="1.5"/>
      <g id="Group_64" data-name="Group 64">
        <g id="Group_63" data-name="Group 63" clip-path="url(#clip-path)">
          <line id="Line_42" data-name="Line 42" x1="0.164" y2="0.164" transform="translate(9.1 0.77)" fill="none" stroke="#88947c" stroke-linecap="round" stroke-linejoin="round" stroke-width="1.5"/>
          <line id="Line_43" data-name="Line 43" y1="0.525" x2="0.525" transform="translate(1.055 19.782)" fill="none" stroke="#88947c" stroke-linecap="round" stroke-linejoin="round" stroke-width="1.5"/>
        </g>
      </g>
      <line id="Line_44" data-name="Line 44" y1="0.525" x2="0.525" transform="translate(3.89 16.947)" fill="none" stroke="#88947c" stroke-linecap="round" stroke-linejoin="round" stroke-width="1.5"/>
      <line id="Line_45" data-name="Line 45" x1="0.525" y1="0.525" transform="translate(3.89 19.782)" fill="none" stroke="#88947c" stroke-linecap="round" stroke-linejoin="round" stroke-width="1.5"/>
      <g id="Group_66" data-name="Group 66">
        <g id="Group_65" data-name="Group 65" clip-path="url(#clip-path)">
          <line id="Line_46" data-name="Line 46" x1="0.525" y1="0.525" transform="translate(1.055 16.947)" fill="none" stroke="#88947c" stroke-linecap="round" stroke-linejoin="round" stroke-width="1.5"/>
          <path id="Path_70" data-name="Path 70" d="M198.236,89.61c-.445-.27-10.9-6.69-10.9-13.488a5.948,5.948,0,0,1,11.172-2.846,5.948,5.948,0,0,1,11.172,2.846c0,6.8-10.451,13.219-10.9,13.488l-.276.168Z" transform="translate(-173.869 -65.127)" fill="none" stroke="#88947c" stroke-linecap="round" stroke-linejoin="round" stroke-width="1.5"/>
          <path id="Path_71" data-name="Path 71" d="M415.345,121.041a2.293,2.293,0,0,1,2.291,2.291" transform="translate(-385.479 -112.337)" fill="none" stroke="#88947c" stroke-linecap="round" stroke-linejoin="round" stroke-width="1.5"/>
          <path id="Path_72" data-name="Path 72" d="M10.954,441.951a30.274,30.274,0,0,1,10.895,3.755,19.362,19.362,0,0,0,8.833,2.482c3.845.22,10.643-2.515,15.872-4.93,10.054-4.646,15.682-7.637,13.041-9.741-2.492-1.985-10.263,2.036-16.9,4.852" transform="translate(-10.166 -401.852)" fill="none" stroke="#88947c" stroke-linecap="round" stroke-linejoin="round" stroke-width="1.5"/>
          <path id="Path_73" data-name="Path 73" d="M24.128,404.512c3.905.419,6.395,1.559,9.787,2.776,3.47,1.245,5.686,2.039,6.328.224.676-1.91-3.425-4.985-7.777-6.8-3.136-1.311-5.3-3.769-8.247-4.23a15.06,15.06,0,0,0-6.408.593,30.061,30.061,0,0,1-7.1,1.231" transform="translate(-9.944 -367.843)" fill="none" stroke="#88947c" stroke-linecap="round" stroke-linejoin="round" stroke-width="1.5"/>
          <path id="Path_74" data-name="Path 74" d="M436.151,405.768a31.125,31.125,0,0,0-11.1,5.033" transform="translate(-394.487 -376.591)" fill="none" stroke="#88947c" stroke-linecap="round" stroke-linejoin="round" stroke-width="1.5"/>
          <path id="Path_75" data-name="Path 75" d="M396.808,383.3a27.992,27.992,0,0,0-8.331,4.5" transform="translate(-360.543 -355.743)" fill="none" stroke="#88947c" stroke-linecap="round" stroke-linejoin="round" stroke-width="1.5"/>
          <path id="Path_76" data-name="Path 76" d="M353.98,370.812a24.673,24.673,0,0,0-5.783,3.595" transform="translate(-323.159 -344.148)" fill="none" stroke="#88947c" stroke-linecap="round" stroke-linejoin="round" stroke-width="1.5"/>
        </g>
      </g>
    </g>
  </g>
</svg>
