<?xml version="1.0" encoding="UTF-8"?>
<svg id="Layer_1" data-name="Layer 1" xmlns="http://www.w3.org/2000/svg" xmlns:xlink="http://www.w3.org/1999/xlink" viewBox="0 0 403.96 412.98">
  <defs>
    <style>
      .cls-1 {
        fill: url(#linear-gradient-12);
      }

      .cls-1, .cls-2, .cls-3, .cls-4, .cls-5, .cls-6, .cls-7, .cls-8, .cls-9, .cls-10, .cls-11, .cls-12, .cls-13, .cls-14, .cls-15, .cls-16, .cls-17 {
        stroke-width: 0px;
      }

      .cls-2 {
        fill: url(#linear-gradient);
      }

      .cls-3 {
        fill: url(#linear-gradient-6);
      }

      .cls-4 {
        fill: url(#linear-gradient-15);
      }

      .cls-5 {
        fill: url(#linear-gradient-11);
      }

      .cls-6 {
        fill: url(#linear-gradient-5);
      }

      .cls-7 {
        fill: none;
      }

      .cls-8 {
        fill: url(#linear-gradient-13);
      }

      .cls-9 {
        fill: url(#linear-gradient-16);
      }

      .cls-10 {
        fill: url(#linear-gradient-14);
      }

      .cls-11 {
        fill: url(#linear-gradient-2);
      }

      .cls-12 {
        fill: url(#linear-gradient-7);
      }

      .cls-13 {
        fill: url(#linear-gradient-3);
      }

      .cls-14 {
        fill: url(#linear-gradient-9);
      }

      .cls-15 {
        fill: url(#linear-gradient-8);
      }

      .cls-16 {
        fill: url(#linear-gradient-10);
      }

      .cls-17 {
        fill: url(#linear-gradient-4);
      }
    </style>
    <linearGradient id="linear-gradient" x1="366" y1="182.65" x2="312.53" y2="125.73" gradientTransform="translate(0 402.99) scale(1 -1)" gradientUnits="userSpaceOnUse">
      <stop offset="0" stop-color="#47543c"/>
      <stop offset=".33" stop-color="#47542e"/>
      <stop offset=".71" stop-color="#88947c"/>
    </linearGradient>
    <linearGradient id="linear-gradient-2" x1="530.58" y1="372.06" x2="205.31" y2="25.8" gradientTransform="translate(0 402.99) scale(1 -1)" gradientUnits="userSpaceOnUse">
      <stop offset="0" stop-color="#47543c"/>
      <stop offset=".28" stop-color="#6d7961"/>
      <stop offset=".51" stop-color="#88947c"/>
      <stop offset=".63" stop-color="#859178"/>
      <stop offset=".74" stop-color="#7b886d"/>
      <stop offset=".84" stop-color="#6c785b"/>
      <stop offset=".94" stop-color="#576341"/>
      <stop offset="1" stop-color="#47542e"/>
    </linearGradient>
    <linearGradient id="linear-gradient-3" x1="490.24" y1="409.54" x2="164.97" y2="63.28" gradientTransform="translate(0 402.99) scale(1 -1)" gradientUnits="userSpaceOnUse">
      <stop offset="0" stop-color="#47543c"/>
      <stop offset=".28" stop-color="#6d7961"/>
      <stop offset=".51" stop-color="#88947c"/>
      <stop offset=".63" stop-color="#859178"/>
      <stop offset=".74" stop-color="#7b886d"/>
      <stop offset=".84" stop-color="#6c785b"/>
      <stop offset=".94" stop-color="#576341"/>
      <stop offset="1" stop-color="#47542e"/>
    </linearGradient>
    <linearGradient id="linear-gradient-4" x1="445.24" y1="451.81" x2="119.97" y2="105.56" gradientTransform="translate(0 402.99) scale(1 -1)" gradientUnits="userSpaceOnUse">
      <stop offset="0" stop-color="#47543c"/>
      <stop offset=".28" stop-color="#6d7961"/>
      <stop offset=".51" stop-color="#88947c"/>
      <stop offset=".63" stop-color="#859178"/>
      <stop offset=".74" stop-color="#7b886d"/>
      <stop offset=".84" stop-color="#6c785b"/>
      <stop offset=".94" stop-color="#576341"/>
      <stop offset="1" stop-color="#47542e"/>
    </linearGradient>
    <linearGradient id="linear-gradient-5" x1="379.02" y1="514.01" x2="53.75" y2="167.76" gradientTransform="translate(0 402.99) scale(1 -1)" gradientUnits="userSpaceOnUse">
      <stop offset="0" stop-color="#47543c"/>
      <stop offset=".28" stop-color="#6d7961"/>
      <stop offset=".51" stop-color="#88947c"/>
      <stop offset=".63" stop-color="#859178"/>
      <stop offset=".74" stop-color="#7b886d"/>
      <stop offset=".84" stop-color="#6c785b"/>
      <stop offset=".94" stop-color="#576341"/>
      <stop offset="1" stop-color="#47542e"/>
    </linearGradient>
    <linearGradient id="linear-gradient-6" x1="446.1" y1="453.47" x2="118.84" y2="105.09" gradientTransform="translate(0 402.99) scale(1 -1)" gradientUnits="userSpaceOnUse">
      <stop offset="0" stop-color="#47543c"/>
      <stop offset=".28" stop-color="#6d7961"/>
      <stop offset=".51" stop-color="#88947c"/>
      <stop offset=".63" stop-color="#859178"/>
      <stop offset=".74" stop-color="#7b886d"/>
      <stop offset=".84" stop-color="#6c785b"/>
      <stop offset=".94" stop-color="#576341"/>
      <stop offset="1" stop-color="#47542e"/>
    </linearGradient>
    <linearGradient id="linear-gradient-7" x1="516.72" y1="386.17" x2="190.63" y2="39.04" gradientTransform="translate(0 402.99) scale(1 -1)" gradientUnits="userSpaceOnUse">
      <stop offset="0" stop-color="#47543c"/>
      <stop offset=".28" stop-color="#6d7961"/>
      <stop offset=".51" stop-color="#88947c"/>
      <stop offset=".63" stop-color="#859178"/>
      <stop offset=".74" stop-color="#7b886d"/>
      <stop offset=".84" stop-color="#6c785b"/>
      <stop offset=".94" stop-color="#576341"/>
      <stop offset="1" stop-color="#47542e"/>
    </linearGradient>
    <linearGradient id="linear-gradient-8" x1="425.71" y1="469.72" x2="100.27" y2="123.29" gradientTransform="translate(0 402.99) scale(1 -1)" gradientUnits="userSpaceOnUse">
      <stop offset="0" stop-color="#47543c"/>
      <stop offset=".28" stop-color="#6d7961"/>
      <stop offset=".51" stop-color="#88947c"/>
      <stop offset=".63" stop-color="#859178"/>
      <stop offset=".74" stop-color="#7b886d"/>
      <stop offset=".84" stop-color="#6c785b"/>
      <stop offset=".94" stop-color="#576341"/>
      <stop offset="1" stop-color="#47542e"/>
    </linearGradient>
    <linearGradient id="linear-gradient-9" x1="398.23" y1="495.97" x2="72.96" y2="149.72" gradientTransform="translate(0 402.99) scale(1 -1)" gradientUnits="userSpaceOnUse">
      <stop offset="0" stop-color="#47543c"/>
      <stop offset=".28" stop-color="#6d7961"/>
      <stop offset=".51" stop-color="#88947c"/>
      <stop offset=".63" stop-color="#859178"/>
      <stop offset=".74" stop-color="#7b886d"/>
      <stop offset=".84" stop-color="#6c785b"/>
      <stop offset=".94" stop-color="#576341"/>
      <stop offset="1" stop-color="#47542e"/>
    </linearGradient>
    <linearGradient id="linear-gradient-10" x1="385.67" y1="507.76" x2="60.4" y2="161.5" gradientTransform="translate(0 402.99) scale(1 -1)" gradientUnits="userSpaceOnUse">
      <stop offset="0" stop-color="#47543c"/>
      <stop offset=".28" stop-color="#6d7961"/>
      <stop offset=".51" stop-color="#88947c"/>
      <stop offset=".63" stop-color="#859178"/>
      <stop offset=".74" stop-color="#7b886d"/>
      <stop offset=".84" stop-color="#6c785b"/>
      <stop offset=".94" stop-color="#576341"/>
      <stop offset="1" stop-color="#47542e"/>
    </linearGradient>
    <linearGradient id="linear-gradient-11" x1="376.15" y1="516.71" x2="50.88" y2="170.46" gradientTransform="translate(0 402.99) scale(1 -1)" gradientUnits="userSpaceOnUse">
      <stop offset="0" stop-color="#47543c"/>
      <stop offset=".28" stop-color="#6d7961"/>
      <stop offset=".51" stop-color="#88947c"/>
      <stop offset=".63" stop-color="#859178"/>
      <stop offset=".74" stop-color="#7b886d"/>
      <stop offset=".84" stop-color="#6c785b"/>
      <stop offset=".94" stop-color="#576341"/>
      <stop offset="1" stop-color="#47542e"/>
    </linearGradient>
    <linearGradient id="linear-gradient-12" x1="422.61" y1="473.07" x2="97.34" y2="126.82" gradientTransform="translate(0 402.99) scale(1 -1)" gradientUnits="userSpaceOnUse">
      <stop offset="0" stop-color="#47543c"/>
      <stop offset=".28" stop-color="#6d7961"/>
      <stop offset=".51" stop-color="#88947c"/>
      <stop offset=".63" stop-color="#859178"/>
      <stop offset=".74" stop-color="#7b886d"/>
      <stop offset=".84" stop-color="#6c785b"/>
      <stop offset=".94" stop-color="#576341"/>
      <stop offset="1" stop-color="#47542e"/>
    </linearGradient>
    <linearGradient id="linear-gradient-13" x1="472.01" y1="426.65" x2="146.74" y2="80.4" gradientTransform="translate(0 402.99) scale(1 -1)" gradientUnits="userSpaceOnUse">
      <stop offset="0" stop-color="#47543c"/>
      <stop offset=".28" stop-color="#6d7961"/>
      <stop offset=".51" stop-color="#88947c"/>
      <stop offset=".63" stop-color="#859178"/>
      <stop offset=".74" stop-color="#7b886d"/>
      <stop offset=".84" stop-color="#6c785b"/>
      <stop offset=".94" stop-color="#576341"/>
      <stop offset="1" stop-color="#47542e"/>
    </linearGradient>
    <linearGradient id="linear-gradient-14" x1="485.23" y1="414.25" x2="159.96" y2="67.99" gradientTransform="translate(0 402.99) scale(1 -1)" gradientUnits="userSpaceOnUse">
      <stop offset="0" stop-color="#47543c"/>
      <stop offset=".28" stop-color="#6d7961"/>
      <stop offset=".51" stop-color="#88947c"/>
      <stop offset=".63" stop-color="#859178"/>
      <stop offset=".74" stop-color="#7b886d"/>
      <stop offset=".84" stop-color="#6c785b"/>
      <stop offset=".94" stop-color="#576341"/>
      <stop offset="1" stop-color="#47542e"/>
    </linearGradient>
    <linearGradient id="linear-gradient-15" x1="499.66" y1="400.68" x2="174.39" y2="54.43" gradientTransform="translate(0 402.99) scale(1 -1)" gradientUnits="userSpaceOnUse">
      <stop offset="0" stop-color="#47543c"/>
      <stop offset=".28" stop-color="#6d7961"/>
      <stop offset=".51" stop-color="#88947c"/>
      <stop offset=".63" stop-color="#859178"/>
      <stop offset=".74" stop-color="#7b886d"/>
      <stop offset=".84" stop-color="#6c785b"/>
      <stop offset=".94" stop-color="#576341"/>
      <stop offset="1" stop-color="#47542e"/>
    </linearGradient>
    <linearGradient id="linear-gradient-16" x1="459.04" y1="438.84" x2="133.77" y2="92.59" gradientTransform="translate(0 402.99) scale(1 -1)" gradientUnits="userSpaceOnUse">
      <stop offset="0" stop-color="#47543c"/>
      <stop offset=".28" stop-color="#6d7961"/>
      <stop offset=".51" stop-color="#88947c"/>
      <stop offset=".63" stop-color="#859178"/>
      <stop offset=".74" stop-color="#7b886d"/>
      <stop offset=".84" stop-color="#6c785b"/>
      <stop offset=".94" stop-color="#576341"/>
      <stop offset="1" stop-color="#47542e"/>
    </linearGradient>
  </defs>
  <rect class="cls-7" x="-18.12" y="-270.38" width="388.11" height="498.87"/>
  <g>
    <path class="cls-2" d="m326.43,246.31s7.21,18.4-.39,32.15c-7.61,13.75.39-32.15.39-32.15Z"/>
    <g>
      <path class="cls-11" d="m286.11,323.52c-.37.07-.38.59,0,.62,17.04,1.18,111.96,2.81,116.84-105.8,1.4-31.13-12.62-66.01-34.66-111.66,0,0,15.88,50.14-5.76,71.65,0,0-16.1,16.31-52.47,7.92,0,0,51.49,25.14,42.83,78.12,0,0-5.77,47.35-66.78,59.14h0Z"/>
      <circle class="cls-13" cx="339.76" cy="153.64" r="20.99"/>
      <path class="cls-17" d="m355.51,339.62c-39.89,40.26-89.25,66.19-149.36,66.19-65.69,0-124.1-29.25-160.45-78.26-2.65-.74-2.8-.46-5.16-1.14,37.27,52.58,95.02,85.86,164.39,85.86,61.34,0,116.4-26.84,154.09-69.39-1.21-1.13-2.42-2.26-3.51-3.27h0ZM204.94.71C91.29.71,1.25,92.46,1.25,206.11c0,24.6,3.51,42.56,11.45,64.42l.88-16.03c-4.42-16.46-6.51-27.43-7.08-45.51C2.99,98.91,94.81,9.46,204.95,9.46c48.39,0,92.81,16.34,127.35,45.03l6.24-4.53C302.58,19.24,255.94.71,204.96.71h-.02Z"/>
      <path class="cls-6" d="m289.06,77.33l-2.79,2.59c-22.64-13.89-49.27-21.88-77.79-21.88-82.38,0-149.18,66.78-149.18,149.16,0,10.01-.91,8.7-.3,24l-5.54-7.42c-.67-5.41-1.05-10.89-1.13-16.46-1.18-81.77,61.07-149.46,142.68-154.73,34.82-2.25,67.37,7.18,94.06,24.74h0Z"/>
      <path class="cls-3" d="m105.53,231.85l68.85-.43s7.74.2,12.17-6.13c3.46-4.94,7.5-27.71,7.5-27.71l11.02-5.9c-2.89,5.51-2.1,16.79-2.1,16.79.66,9.84,11.8,9.84,11.8,9.84,29.25,2.49,35.94-4.2,35.94-4.2-2.1-7.34-11.67-23.87-11.67-23.87l12.33-19.02c7.74,6.43,12.01,23.34,12.59,33.05.56,9.27-2.85,19.76-2.85,19.76-4.63,13.12-21.02,17.1-21.02,17.1-11.94,4.33-31.48.66-31.48.66-11.94-1.97-15.21-11.67-15.21-11.67-1.37,15.39-25.71,13.25-25.71,13.25h-55.58s-5.43-4.32-6.58-11.5v-.02Z"/>
      <path class="cls-12" d="m318.12,263.16c6.96,2.86-15.56,7.83-15.56,7.83-13.26,2.67-37.75.11-37.75.11-12.39-3.67-21.38-24.13-21.38-24.13-2.95,1.9-9.71,18.62-9.71,18.62,3.08,8,13.38,22.95,13.38,22.95-5.77,24.46-29.58,31.22-29.58,31.22-9.84,2.5-17.8.81-20.86-.07-.77-.22-1.55.22-1.79.98l-1.25,3.95c-.29.92.05,2,.91,2.45,9.82,5.09,19.61,9.16,19.61,9.16,10.79,5.2,18.72,0,18.72,0,13.02-7,20.08-19.44,20.08-19.44,6.3-12.85,4.97-23.06,4.97-23.06l.47-.24c23.07,5.73,53.57-1.99,53.57-1.99,15.08-5.51,16.39-19.67,16.39-19.67l.13-18.23c-2.94-17.93-5.74-27.63-5.74-27.63-6.43-20.46-21.54-19.71-21.54-19.71-16.13.52-25.71,21.38-25.71,21.38-4.59,11.54-1.05,20.85-1.05,20.85,3.93,12.98,18.23,14.03,18.23,14.03,0,0,22.25-.66,25.44.66l.02-.02Z"/>
      <path class="cls-15" d="m41.41,236.22c-.21-.66-1.1-.8-1.48-.22-3.4,5.12-13.3,23.79-13.56,39.52,0,0-.22,18.36,12.72,29.77,0,0,9.27,8,22.21,8.26,0,0,38.91,0,46.05-42.4l71.35-.7s21.25.17,19.8,12.63c0,0,9.39-11.02,5.54-23,0,0-4.33-11.72-17.61-11.23l-75.55-.66s-13.74-7.72-13.59-24.92c0-.59-.77-.84-1.12-.36l-13.41,17.84c-.75,1-.79,2.36-.1,3.4l14.06,21.22s3.02,4.46-1.31,9.57c0,0-16.67,16.7-32.28,14.47,0,0-37.91-3.54-19.86-44.79.29-.66.34-1.4.12-2.08l-2-6.33h.02Z"/>
      <path class="cls-14" d="m137.39,177.77l14.03,11.54,12.72-16s-7.34-10.1-19.67-15.74l-11.02,16,3.93,4.2h.01Z"/>
      <path class="cls-16" d="m119.55,158.76s-5.51,9.97-12.07,17.05c0,0,15.87,10.62,18.76,15.35l8.88-9.68c.97-1.05,1.59-2.38,1.77-3.79.33-2.58.13-6.55-3.56-8.82-5.77-3.54-13.77-10.1-13.77-10.1h0Z"/>
      <path class="cls-5" d="m115.22,149.05s12.33,8.66,18.62,14.56c0,0,10.36-9.31,12.2-15.61,0,0-6.69-10.62-19.02-16.26l-11.8,17.31h0Z"/>
      <path class="cls-1" d="m182.83,170.95s10.16,8.13,16.46,14.03c0,0,10.69-8.98,12.53-15.28,0,0-5.38-7.34-17.77-14.49l-11.21,15.74h-.01Z"/>
      <path class="cls-8" d="m264.87,182.63s10.16,8.13,16.46,14.03c0,0,10.69-8.98,12.53-15.28,0,0-5.38-7.34-17.77-14.49l-11.21,15.74h-.01Z"/>
      <path class="cls-10" d="m205.72,274.44s8.92,6.3,13.38,11.15l14.16-15.48s-6.03-9.44-13.25-12.07c0,0-12.98,12.07-14.3,16.39h0Z"/>
      <path class="cls-4" d="m206.9,302.11s8.92,6.3,13.38,11.15l14.16-15.48s-6.03-9.44-13.25-12.07c0,0-12.98,12.07-14.3,16.39h0Z"/>
      <path class="cls-9" d="m302.43,176.55c-.99-4.92-26.28-61.47,16.26-65.84,0,0,63.39-7.26,42.23-64.79-7.56,35.83-67.72,26.41-80.53,70.04,0,0-9.7,33.05,22.04,60.6h0Z"/>
    </g>
  </g>
</svg>